# xmcd
#
# Track frame offsets: 
#        150
#        17479
#        36605
#        58052
#        89773
#        115675
#        142522
#        165499
#        189123
#        212112
#        228303
#        253028
#        269206
#        285839
#        302378
#        314940
#        329696
#
# Disc length: 4794 seconds
#
# Revision: 0
# Processed by: cddbd v1.5.1PL0 Copyright (c) Steve Scherf et al.
# Submitted via: ExactAudioCopy v0.95a3
#
DISCID=f412b811
DTITLE=Willard Grant Conspiracy - There But For The Grace Of God (a sh
DTITLE=ort history of the)
DYEAR=2004
DGENRE=americana
TTITLE0=Morning Is The End Of Day
TTITLE1=The Ostrich Song
TTITLE2=Child's Play
TTITLE3=Bring It Down
TTITLE4=Bring The Monster Inside
TTITLE5=Evening Mass
TTITLE6=St. John Street
TTITLE7=Rainbirds
TTITLE8=The Work Song
TTITLE9=Another Lonely Night
TTITLE10=I Miss You Best
TTITLE11=Love Doesn't
TTITLE12=Sticky
TTITLE13=Christmas In Nevada
TTITLE14=Ballad Of John Parker
TTITLE15=The Trials Of Harrison Hayes
TTITLE16=Dig A Hole
EXTD=
EXTT0=
EXTT1=
EXTT2=
EXTT3=
EXTT4=
EXTT5=
EXTT6=
EXTT7=
EXTT8=
EXTT9=
EXTT10=
EXTT11=
EXTT12=
EXTT13=
EXTT14=
EXTT15=
EXTT16=
PLAYORDER=
